<svg width="50" height="50" viewBox="0 0 50 50" fill="none" xmlns="http://www.w3.org/2000/svg">
<path d="M22.5098 0.380857C21.7871 0.566404 21.123 1.13281 20.8398 1.80664C20.752 2.02148 20.6543 2.57812 20.625 3.04687L20.5762 3.90625H18.3594C15.7227 3.90625 15.459 3.96484 14.6875 4.72656C13.8867 5.52734 13.8672 5.6543 13.8672 9.33594V12.4902L14.1211 12.6855C14.4434 12.9395 14.7559 12.9492 15.0488 12.7051C15.2539 12.5391 15.2832 12.4219 15.3223 11.6797L15.3516 10.8398L15.8008 11.1523C16.4648 11.6113 17.1387 11.8359 18.0469 11.8945L18.8477 11.9434V12.5098C18.8477 12.998 18.877 13.0957 19.1016 13.2715C19.3945 13.5059 19.5215 13.5254 19.8535 13.3691C20.166 13.2324 20.3125 12.8906 20.3125 12.3535V11.9141H25H29.6875V12.3535C29.6875 12.8906 29.834 13.2324 30.1465 13.3691C30.4785 13.5254 30.6055 13.5059 30.8984 13.2715C31.123 13.0957 31.1523 12.998 31.1523 12.5098V11.9434L31.9629 11.8945C32.8613 11.8359 33.5352 11.6113 34.209 11.1426L34.668 10.8301V13.877C34.668 17.2363 34.6484 17.373 34.0527 17.7246C33.75 17.9102 33.5059 17.9199 25 17.9199C16.6406 17.9199 16.25 17.9102 15.957 17.7344C15.4883 17.4512 15.4004 17.2168 15.332 16.1719C15.2832 15.3223 15.2441 15.1855 15.0488 15.0293C14.7559 14.7852 14.4434 14.7949 14.1211 15.0488C13.877 15.2441 13.8672 15.2832 13.8672 16.25C13.8672 17.1777 13.8867 17.3047 14.1699 17.8516C14.4922 18.5156 14.8633 18.877 15.5273 19.1797C15.9668 19.3848 16.0352 19.3848 25 19.3848C33.3691 19.3848 34.0625 19.375 34.4043 19.2187C35.0586 18.9258 35.5176 18.4766 35.8301 17.8516L36.1328 17.2559V11.7187C36.1328 5.36133 36.1621 5.57617 35.3125 4.72656C34.541 3.96484 34.2773 3.90625 31.6406 3.90625H29.4238L29.3652 3.03711C29.3359 2.56836 29.2383 2.00195 29.1504 1.79687C28.9551 1.31836 28.4863 0.830076 27.9785 0.556639C27.6074 0.351561 27.4414 0.341795 25.1953 0.322264C23.877 0.312498 22.6758 0.341795 22.5098 0.380857ZM27.3438 1.88476C27.7148 2.07031 27.9297 2.58789 27.9297 3.29101V3.90625H25H22.0703V3.29101C22.0703 2.58789 22.2852 2.07031 22.6562 1.88476C22.832 1.79687 23.5156 1.75781 25 1.75781C26.4844 1.75781 27.168 1.79687 27.3438 1.88476ZM34.0527 5.56641C34.5801 5.87891 34.6973 6.24023 34.6484 7.36328C34.6191 8.18359 34.5703 8.42773 34.3555 8.84766C33.8574 9.79492 32.9785 10.3516 31.8652 10.4297L31.1523 10.4785V9.93164C31.1523 9.32617 30.9766 9.0332 30.5469 8.92578C30.332 8.87695 30.2246 8.92578 29.9805 9.16016C29.7363 9.41406 29.6875 9.53125 29.6875 9.95117V10.4492H25H20.3125V9.95117C20.3125 9.53125 20.2637 9.41406 20.0195 9.16016C19.7754 8.92578 19.668 8.87695 19.4531 8.92578C19.0234 9.0332 18.8477 9.32617 18.8477 9.93164V10.4785L18.1445 10.4297C17.0215 10.3516 16.1426 9.79492 15.6445 8.84766C15.4297 8.42773 15.3809 8.18359 15.3516 7.36328C15.3027 6.24023 15.4199 5.87891 15.9473 5.56641C16.25 5.38086 16.5039 5.37109 25 5.37109C33.4961 5.37109 33.75 5.38086 34.0527 5.56641Z" fill="black"/>
<path d="M0.898438 16.8653C0.722656 16.9532 0.458984 17.1778 0.3125 17.3633L0.0488281 17.7051V25.6739V33.6426L0.322266 34.1992C0.46875 34.502 0.732422 34.8828 0.908203 35.0293C1.25977 35.3418 6.80664 38.6817 7.46094 38.9746C8.23242 39.3262 9.27734 39.1309 9.86328 38.5254C10.1562 38.2227 10.4492 38.086 10.4492 38.2422C10.4492 38.2813 10.2441 38.584 10 38.9356C9.42383 39.7461 9.23828 40.293 9.30664 41.0059C9.42383 42.3145 10.3613 43.2324 11.6797 43.3399C12.2754 43.3789 12.2852 43.3887 12.3828 43.7403C12.6758 44.7071 13.7695 45.5078 14.8145 45.5078C15.2441 45.5078 15.332 45.5371 15.332 45.6739C15.3418 46.0059 15.8691 46.8164 16.2891 47.1387C16.5234 47.3145 16.8945 47.5098 17.1191 47.5684C17.5098 47.6758 18.4375 47.6465 18.7598 47.5196C18.8574 47.4707 18.9453 47.5293 19.0137 47.6856C19.2188 48.125 19.7754 48.6621 20.2637 48.8867C21.123 49.2969 22.1191 49.1699 22.9004 48.584C23.1445 48.3985 23.3594 48.2422 23.3887 48.2422C23.418 48.2422 23.916 48.5254 24.502 48.877C25.0977 49.2285 25.8008 49.5606 26.0645 49.6289C27.3145 49.9121 28.6914 49.0625 29.0332 47.7735C29.1211 47.461 29.1797 47.3731 29.2969 47.4219C30.2539 47.8321 30.9082 47.8321 31.7188 47.4219C32.3535 47.0996 32.7832 46.5723 32.9785 45.8692L33.1445 45.293L33.4668 45.3614C34.5996 45.5762 35.9375 44.6778 36.25 43.4961L36.3672 43.086L37.1289 43.1348C38.0469 43.2032 38.5547 43.0469 39.1016 42.5098C39.6973 41.9336 39.8926 41.4746 39.8926 40.625C39.8926 40 39.8535 39.8242 39.6289 39.4141C39.4727 39.1504 39.3555 38.9258 39.3555 38.916C39.3555 38.8965 39.5117 38.7891 39.707 38.6817L40.0684 38.4668L40.2734 38.6621C40.5566 38.9356 41.2402 39.1602 41.7578 39.1602C42.1777 39.1602 43.0371 38.7793 44.0234 38.1543C44.6875 37.7246 44.7754 37.2168 44.2578 36.8164C43.9258 36.5528 43.7207 36.6016 42.7148 37.2168C41.8652 37.7246 41.543 37.793 41.2305 37.5196C41.123 37.4317 39.6484 35.0196 37.9492 32.168C35.7324 28.4473 34.8633 26.9043 34.8633 26.6992C34.8633 26.5137 34.9512 26.3184 35.0879 26.2012C35.2832 26.0059 48.3691 18.1641 48.4863 18.1641C48.5156 18.1641 48.5352 21.5625 48.5352 25.7129C48.5352 32.8516 48.5254 33.2715 48.3594 33.5938C48.2227 33.8379 47.9199 34.0918 47.2559 34.502C46.748 34.8047 46.2793 35.1367 46.2207 35.2246C45.918 35.625 46.2695 36.3282 46.7773 36.3282C47.0898 36.3282 48.5254 35.5274 49.0723 35.0489C49.2578 34.8828 49.5312 34.502 49.6777 34.1992L49.9512 33.6426V25.6739V17.7051L49.6875 17.3633C49.3652 16.9434 48.6816 16.6504 48.2129 16.7285C47.9297 16.7676 34.9609 24.4043 34.209 24.9805C34.0332 25.1074 33.7793 25.4492 33.6328 25.7422C33.4082 26.211 33.3789 26.3574 33.4277 26.9141C33.4766 27.5196 33.4668 27.5586 33.2324 27.6465C32.7148 27.8418 32.1387 27.7442 30.8301 27.2364C29.0527 26.543 28.8086 26.5332 26.6699 27.0703L24.9707 27.5L24.3262 27.1875C22.9004 26.4844 22.0605 26.4844 20.2148 27.2071C19.1602 27.6172 18.8965 27.6856 18.3105 27.6856C17.7441 27.6856 17.5391 27.6367 17.1191 27.4024C16.6113 27.1192 16.6016 27.1094 16.6016 26.6602C16.6016 26.0938 16.2207 25.3028 15.791 24.9707C15.4395 24.7071 2.91016 17.2266 2.27539 16.9043C1.78711 16.6602 1.33789 16.6407 0.898438 16.8653ZM8.20312 22.1192C11.7773 24.2481 14.7949 26.084 14.9219 26.1914C15.0488 26.3184 15.1367 26.5137 15.1367 26.6992C15.1367 26.9043 14.2676 28.4571 12.0508 32.1973C10.3516 35.0586 8.86719 37.4707 8.75977 37.5489C8.64258 37.627 8.4375 37.6953 8.30078 37.6953C8.16406 37.6856 6.73828 36.8946 4.94141 35.8106C2.31445 34.2383 1.78711 33.877 1.64062 33.5938C1.47461 33.2715 1.46484 32.8028 1.46484 25.7032C1.46484 19.6973 1.49414 18.1543 1.5918 18.1934C1.65039 18.2227 4.62891 19.9805 8.20312 22.1192ZM23.1934 28.2617L23.5254 28.4082L23.1934 28.9551C23.0176 29.2578 22.8223 29.7266 22.7637 29.9903C22.627 30.6348 22.627 34.4727 22.7637 34.834C23.125 35.791 24.2578 36.1133 25.5469 35.6348C26.2305 35.3809 27.1484 34.5215 27.3535 33.9551C27.4219 33.7598 27.5195 33.5938 27.5684 33.5938C27.6172 33.5938 30.0098 34.9903 32.8809 36.6895C36.8164 39.0137 38.1543 39.8535 38.3008 40.0782C38.7402 40.7813 38.2227 41.6992 37.373 41.6992C37.0117 41.6992 36.5137 41.4356 33.3496 39.5508C31.1035 38.2129 29.6387 37.4024 29.4824 37.4024C28.8281 37.4024 28.5352 38.1641 29.0137 38.6133C29.1406 38.7403 30.4297 39.5313 31.8652 40.3809C33.3008 41.2305 34.5605 42.0313 34.668 42.168C34.9316 42.4903 34.9316 43.1543 34.668 43.4864C34.4043 43.8184 33.8672 43.9942 33.5059 43.8672C33.3496 43.8086 32.041 43.0664 30.5957 42.2071C29.1602 41.3477 27.8809 40.625 27.7734 40.586C27.4707 40.4883 27.0801 40.7032 26.9434 41.0449C26.7285 41.5528 26.9336 41.7383 29.1992 43.0762C31.3574 44.3653 31.6406 44.5996 31.6406 45.1465C31.6406 45.7715 30.957 46.3672 30.3711 46.25C30.2148 46.2207 29.2285 45.6836 28.1641 45.0586C26.8555 44.2774 26.1426 43.916 25.9473 43.916C25.4688 43.916 25.1562 44.4532 25.3516 44.961C25.3906 45.0489 25.8301 45.3711 26.3379 45.6739C27.4316 46.3282 27.6367 46.5528 27.6367 47.1192C27.6367 47.8614 26.9336 48.3887 26.2598 48.1543C26.0449 48.0762 24.5801 47.2559 24.2383 47.0215C24.2285 47.0117 24.3066 46.8067 24.4141 46.5723C24.6875 45.9668 24.6777 45.1074 24.375 44.4824C24.043 43.7598 23.4961 43.3106 22.627 43.0274C22.5 42.9883 22.4609 42.9102 22.5098 42.7637C22.5488 42.6465 22.5781 42.3047 22.5781 41.9922C22.5781 40.6348 21.5723 39.5899 20.1465 39.4727C19.707 39.4434 19.5312 39.3848 19.5312 39.2871C19.5312 39.2188 19.4238 38.9356 19.2871 38.6817C18.584 37.2852 16.7383 36.875 15.4688 37.8418L15.166 38.0762L14.8438 37.6758C14.2188 36.9043 12.8906 36.5723 11.9727 36.9532C11.5234 37.1387 11.4258 37.1387 11.1914 36.9629C11.0156 36.836 11.1426 36.6016 13.4766 32.666C14.834 30.3809 15.9863 28.5157 16.0352 28.5157C16.0938 28.5157 16.2793 28.6035 16.4453 28.7012C16.9141 28.9844 17.7441 29.1992 18.3984 29.1992C18.9746 29.1992 19.4238 29.0625 21.3867 28.3301C22.0215 28.0957 22.7246 28.0664 23.1934 28.2617ZM29.5703 28.3301C31.9922 29.2285 31.9434 29.209 32.7637 29.1699C33.1934 29.1407 33.7012 29.0625 33.8965 28.9746L34.248 28.8282L36.6309 32.8516C37.9297 35.0586 39.0625 36.9532 39.1309 37.0606C39.248 37.2461 39.209 37.2949 38.6133 37.6367L37.9785 37.9981L32.6074 34.8242C28.7988 32.5684 27.1582 31.6407 26.9531 31.6407C26.5332 31.6407 26.3086 31.9141 26.2305 32.5196C26.084 33.6328 25.3809 34.375 24.4629 34.375H24.1211V32.3926C24.1211 30.4785 24.1309 30.3907 24.3652 29.9219C24.7363 29.1797 25.0391 29.0137 26.8066 28.5449C27.666 28.3203 28.5156 28.1348 28.6914 28.1348C28.8672 28.125 29.2578 28.2227 29.5703 28.3301ZM13.457 38.4082C13.75 38.5547 13.9648 38.9649 13.9648 39.3848C13.9648 39.6387 13.8086 39.9414 13.3105 40.6543C12.9492 41.1621 12.5391 41.6504 12.3926 41.7383C11.582 42.2168 10.5469 41.4258 10.7715 40.5176C10.8105 40.3907 11.1328 39.8633 11.5039 39.3555C12.334 38.2032 12.6953 38.0274 13.457 38.4082ZM17.5684 38.916C17.9297 39.0918 18.2031 39.668 18.125 40.0684C18.0566 40.4004 15.8301 43.5547 15.4492 43.8477C15.3027 43.9649 15.0586 44.043 14.8242 44.043C14.5117 44.043 14.3652 43.9746 14.1016 43.711C13.8281 43.4375 13.7695 43.3106 13.7695 42.9492C13.7695 42.5586 13.877 42.3828 14.9902 40.8203C15.6641 39.8828 16.3379 39.0332 16.4844 38.9453C16.8066 38.7305 17.207 38.7207 17.5684 38.916ZM20.7617 41.2207C21.0547 41.4942 21.1816 41.9434 21.084 42.3145C21.0059 42.5879 18.7793 45.7715 18.5059 45.9961C18.2715 46.1914 17.6367 46.2305 17.3145 46.0645C16.9336 45.8692 16.6602 45.3125 16.748 44.9121C16.8359 44.5215 19.1895 41.2403 19.5215 41.0645C19.8633 40.8692 20.4688 40.9473 20.7617 41.2207ZM22.5586 44.5801C23.3203 44.9707 23.3398 45.586 22.6367 46.6309C22.0605 47.4805 21.7383 47.7051 21.1719 47.627C20.7324 47.5684 20.4785 47.3731 20.3125 46.9629C20.127 46.5332 20.2637 46.1035 20.8203 45.3614C21.5234 44.4434 21.9336 44.2578 22.5586 44.5801Z" fill="black"/>
</svg>
