<svg width="48" height="38" viewBox="0 0 48 38" fill="none" xmlns="http://www.w3.org/2000/svg">
<path d="M3.41406 0.552731C2.97461 0.679684 2.38867 1.29492 2.24219 1.77343C2.17383 2.01757 2.125 2.78906 2.125 3.74609C2.125 5.04492 2.1543 5.33789 2.28125 5.46484C2.48633 5.67968 2.87695 5.66015 3.00391 5.43554C3.0625 5.32812 3.10156 4.54687 3.10156 3.61914V1.98828L3.38477 1.70507L3.66797 1.42187H21.4121C40.9336 1.42187 39.5859 1.38281 39.8105 2.01757C39.8887 2.24218 39.918 5.39648 39.918 12.8281V23.3262L39.6152 23.2578C39.4492 23.2285 39.1562 23.1992 38.9805 23.1992H38.6484L38.7168 13.1504C38.7754 3.81445 38.7656 3.08203 38.6094 2.84765L38.4531 2.59375H21.5195C5.25 2.59375 4.58594 2.60351 4.43945 2.76953C4.2832 2.93554 4.27344 3.87304 4.27344 14.1758C4.27344 23.0137 4.30273 25.4453 4.40039 25.5723C4.50781 25.7285 5.51367 25.7383 18.8535 25.7676L33.1895 25.7871L32.9355 26.1289C32.2617 27.0176 31.6172 28.7559 31.6172 29.6641V30.0352H17.6426H3.66797L3.38477 29.752L3.10156 29.4687V18.6777C3.10156 8.35547 3.0918 7.88672 2.92578 7.74023C2.69141 7.52539 2.48633 7.53515 2.29102 7.75C2.13477 7.91601 2.125 8.81445 2.125 18.6191C2.125 25.6699 2.16406 29.4297 2.22266 29.6641C2.35938 30.1523 2.75977 30.6113 3.24805 30.8262C3.60938 30.9922 4.01953 31.0117 9.2832 31.0117H14.918V32.3789C14.918 33.5312 14.8984 33.7461 14.7715 33.7461C14.498 33.7461 13.7559 34.1465 13.3262 34.5273C12.8574 34.9473 12.4277 35.6602 12.3301 36.207L12.2617 36.5781H8.0625C5.35742 36.5781 3.80469 36.6172 3.67773 36.6758C3.46289 36.793 3.42383 37.252 3.60938 37.4375C3.69727 37.5254 8.32617 37.5547 23.8145 37.5547C41.9492 37.5547 43.9219 37.5352 44.0586 37.3984C44.2637 37.1934 44.2539 36.9395 44.0391 36.7441C43.9023 36.6172 43.668 36.5781 43.0332 36.5781H42.2129L42.6035 36.3145C44.6543 34.9473 45.8066 32.8672 45.8164 30.4746C45.8262 29.4004 45.6406 28.248 45.416 28.0234C45.2305 27.8477 44.8594 27.8477 44.7031 28.0332C44.6055 28.1504 44.6152 28.3359 44.7422 28.9609C45.1816 31.1484 44.5957 33.1699 43.0918 34.6836C41.8516 35.9238 40.416 36.5195 38.6973 36.5098C37.0566 36.5098 35.709 36.041 34.625 35.1133C33.9512 34.5273 33.2578 33.4434 32.9258 32.418C32.6719 31.627 32.6426 31.4316 32.6523 30.2793C32.6523 29.1758 32.6914 28.9121 32.9258 28.209C33.5801 26.2266 35.1133 24.791 37.0957 24.3223C37.9062 24.1367 39.4199 24.1367 40.1621 24.3223C41.4902 24.6641 42.7695 25.4746 43.5215 26.4609C44.0098 27.0957 44.2539 27.2129 44.5273 26.9297C44.8594 26.6074 44.6836 26.2656 43.6973 25.2988C43.0039 24.625 42.6133 24.3223 41.9883 24C41.5391 23.7754 41.1094 23.5898 41.041 23.5898C40.9238 23.5898 40.8945 21.9297 40.875 12.7207C40.8457 0.748043 40.8945 1.62695 40.2402 1.01171C39.6055 0.406246 40.9629 0.445309 21.4902 0.455074C10.6211 0.455074 3.60938 0.494137 3.41406 0.552731ZM37.7695 13.4141V23.2578L37.1641 23.3848C36.3438 23.5508 35.4062 23.9512 34.6738 24.4492L34.0684 24.8594H19.6641H5.25V14.2148V3.57031H21.5098H37.7695V13.4141ZM26.6855 32.3301V33.5996L21.2949 33.6289L15.8945 33.6484V32.3301V31.0117L21.2949 31.0312L26.6855 31.0605V32.3301ZM31.6562 31.4902C31.7344 32.1152 32.1348 33.2676 32.4668 33.834C33.0625 34.8594 33.7754 35.6211 34.7812 36.3047L35.1816 36.5781H32.7793H30.3867L30.2207 36.0605C29.8887 34.9961 29.2441 34.3027 28.209 33.8828L27.6621 33.6582L27.6328 32.4668C27.623 31.8027 27.6328 31.207 27.6523 31.1387C27.6914 31.041 28.1406 31.0117 29.6445 31.0117H31.5879L31.6562 31.4902ZM28.0039 34.8105C28.248 34.9375 28.5508 35.1328 28.668 35.25C28.9023 35.4551 29.3711 36.2852 29.3711 36.4805C29.3711 36.5488 26.793 36.5781 21.3145 36.5781C12.4082 36.5781 13.082 36.627 13.4141 35.9629C13.7656 35.2598 14.3906 34.7812 15.1426 34.625C15.3672 34.5859 18.2578 34.5469 21.5586 34.5566L27.5645 34.5762L28.0039 34.8105Z" fill="white"/>
<path d="M28.7559 5.31834C28.4141 5.3574 28.1504 5.43553 28.1016 5.52342C27.8281 5.95311 28.248 6.37303 28.834 6.26561C29.0195 6.22654 29.1758 6.22654 29.1758 6.25584C29.1758 6.28514 28.6191 6.92967 27.9355 7.68162C27.0371 8.67772 26.6562 9.02928 26.5488 8.98045C26.1191 8.81444 25.6992 8.83397 25.2598 9.05858L24.8008 9.29295L23.9414 8.69725L23.082 8.09178L23.1016 7.61326C23.1211 7.2617 23.0625 7.02733 22.9062 6.75389C22.6523 6.31444 21.9883 5.91404 21.5195 5.91404C21.0703 5.91404 20.377 6.30467 20.1133 6.69529C19.918 6.98826 19.8887 7.13475 19.918 7.73045L19.9473 8.41404L18.834 9.59568C17.8184 10.6699 17.6914 10.7676 17.4766 10.6894C17.0664 10.5332 16.5488 10.5918 16.0898 10.8555L15.6504 11.1094L14.8984 10.7383C14.1758 10.3867 14.1367 10.3476 14.1367 10.0449C14.1367 9.1074 13.043 8.28709 12.1348 8.541C11.3438 8.75584 10.9141 9.34178 10.9141 10.1914C10.9141 11.0215 11.5098 11.666 12.3594 11.7539C12.7598 11.7832 12.9355 11.7441 13.3262 11.539L13.8047 11.2754L14.5566 11.6269C15.2891 11.9687 15.3086 11.9883 15.3086 12.3203C15.3086 13.2187 16.3633 14.0683 17.2324 13.8633C18.2188 13.6289 18.707 12.8086 18.502 11.7539C18.4238 11.4023 18.4434 11.3828 19.5273 10.2402C20.3379 9.38084 20.6699 9.09764 20.8164 9.11717C21.3926 9.21483 22.0371 9.166 22.2617 9.01951C22.5059 8.86326 22.5254 8.87303 23.3555 9.4492C23.8242 9.77147 24.2246 10.0937 24.2441 10.1523C24.2637 10.2109 24.3125 10.4746 24.3418 10.748C24.4004 11.1387 24.4883 11.3047 24.8203 11.6367C25.4844 12.3105 26.334 12.3398 27.0371 11.7051C27.5352 11.2558 27.6914 10.748 27.5352 10.1426L27.4082 9.70311L28.0723 8.96092C28.4434 8.56053 29 7.93553 29.3223 7.5742L29.9082 6.91014L29.9668 7.34959C30.0449 7.98436 30.4453 8.24803 30.7969 7.89647C30.9434 7.74998 30.9531 7.59373 30.8945 6.6074C30.8555 5.99217 30.7773 5.42576 30.7188 5.3574C30.6113 5.22069 29.8008 5.21092 28.7559 5.31834ZM21.9297 7.04686C22.3887 7.36912 22.0859 8.25779 21.5098 8.25779C21.2168 8.25779 20.7773 7.8574 20.7773 7.59373C20.7773 7.48631 20.8652 7.291 20.9824 7.14451C21.2168 6.85154 21.5977 6.81248 21.9297 7.04686ZM12.9648 9.62498C13.1992 9.85936 13.2188 10.3769 12.9941 10.6211C12.75 10.8945 12.2422 10.8555 11.9883 10.5332C11.4805 9.88865 12.3887 9.04881 12.9648 9.62498ZM26.4121 10.0351C26.6855 10.2988 26.7051 10.6894 26.4414 10.9726C26.1875 11.2461 25.7871 11.2461 25.4941 10.9726C25.2109 10.709 25.2109 10.3379 25.4844 10.0449C25.748 9.7617 26.1191 9.7617 26.4121 10.0351ZM17.4473 11.832C17.5645 11.9785 17.6523 12.1738 17.6523 12.2812C17.6523 12.5351 17.2227 12.9453 16.9395 12.9453C16.4023 12.9453 16.0703 12.164 16.4512 11.7539C16.6953 11.4805 17.2031 11.5195 17.4473 11.832Z" fill="white"/>
<path d="M28.7949 11.3145C28.7168 11.4121 28.6778 13.1016 28.668 17.0078L28.6387 22.5645L28.1309 22.5938L27.6133 22.623V19.498C27.6133 15.7188 27.7891 16.0703 25.9043 16.0703C24.0195 16.0703 24.1953 15.7188 24.1953 19.498V22.623L23.6875 22.5938L23.1699 22.5645L23.1406 18.0234C23.1211 13.8926 23.1016 13.4727 22.9551 13.3555C22.8379 13.2773 22.3594 13.2383 21.4024 13.2383C20.0742 13.2383 19.9961 13.248 19.8594 13.4531C19.7227 13.6484 19.7031 14.2539 19.7031 18.1504V22.623L19.1953 22.5938L18.6778 22.5645L18.6485 20.0938L18.6289 17.623L18.375 17.5352C18.2383 17.4766 17.584 17.4375 16.9199 17.4375C15.1817 17.4375 15.3184 17.2227 15.2793 20.1719L15.2598 22.5645L14.752 22.5938L14.2344 22.623V19.3711C14.2344 16.5781 14.2149 16.0801 14.0781 15.8945C13.9414 15.6895 13.8633 15.6797 12.5352 15.6797C11.3047 15.6797 11.1192 15.6992 10.9824 15.8555C10.836 16.0215 10.8164 16.4023 10.8164 19.3223V22.6035L10.0742 22.6328C9.41018 22.6621 9.31252 22.6816 9.24416 22.8672C9.19534 23.0039 9.22463 23.1504 9.31252 23.2871L9.45901 23.4922H21.4512C30.6406 23.4922 33.4629 23.4629 33.5508 23.375C33.6973 23.2285 33.6973 22.877 33.5508 22.7305C33.4824 22.6621 33.1602 22.6133 32.7695 22.6133H32.1055V17.1152C32.1055 12.3008 32.086 11.5977 31.9492 11.4023C31.8125 11.1973 31.7344 11.1875 30.3574 11.1875C29.2637 11.1875 28.8828 11.2168 28.7949 11.3145ZM31.1094 17.3594L31.0801 22.5645L30.377 22.5938L29.6641 22.623V17.3887V12.1641H30.3965H31.1289L31.1094 17.3594ZM22.1446 18.4141V22.623L21.4414 22.5938L20.7285 22.5645L20.6992 18.3848L20.6797 14.2148H21.4121H22.1446V18.4141ZM13.2578 19.6348V22.6133H12.5254H11.793V19.6348V16.6562H12.5254H13.2578V19.6348ZM26.6367 19.8301V22.6133H25.9043H25.1719V19.8301V17.0469H25.9043H26.6367V19.8301ZM17.7305 20.4844L17.7012 22.5645H16.9688H16.2363L16.2071 20.6113C16.1973 19.5371 16.2071 18.6094 16.2266 18.541C16.2656 18.4531 16.5098 18.4141 17.0176 18.4141H17.75L17.7305 20.4844Z" fill="white"/>
<path d="M37.5547 25.4941C35.2695 26.0703 33.7559 28.0039 33.7559 30.3379C33.7461 31.793 34.2539 32.9648 35.2988 33.9414C36.3047 34.8789 37.3594 35.3086 38.6973 35.3086C42.3594 35.3086 44.7617 31.5293 43.1992 28.2285C42.6328 27.0176 41.6367 26.1289 40.3574 25.6504C39.6055 25.3672 38.3262 25.2988 37.5547 25.4941ZM40.2403 26.6172C41.5293 27.1152 42.5938 28.5703 42.7207 30.0059C42.9746 33.082 39.7715 35.2891 36.9785 33.9707C35.7969 33.4141 34.9766 32.3203 34.7324 30.9824C34.3809 29.0977 35.5918 27.125 37.4668 26.5C38.209 26.2559 39.4492 26.3047 40.2403 26.6172Z" fill="white"/>
<path d="M38.375 27.0273C38.3066 27.0957 38.2578 27.2715 38.2578 27.418C38.2578 27.5645 38.2187 27.6914 38.1602 27.6914C37.9453 27.6914 37.2812 28.4141 37.1738 28.7656C36.8809 29.7324 37.6621 30.8164 38.6484 30.8164C39.2246 30.8164 39.5664 31.5488 39.1562 31.9199C38.7656 32.2715 38.0625 32.0176 38.0625 31.5195C38.0625 31.2656 37.8184 31.0117 37.5742 31.0117C37.3301 31.0117 37.0859 31.2754 37.0859 31.5391C37.0859 31.9395 37.5059 32.6133 37.8867 32.8184C38.1699 32.9648 38.2578 33.0723 38.2578 33.2676C38.2578 33.5801 38.4238 33.7461 38.7559 33.7461C39.0195 33.7461 39.1367 33.5996 39.1367 33.2676C39.1367 33.1797 39.3223 32.9648 39.5566 32.7988C40.2891 32.291 40.4844 31.5391 40.1133 30.7578C39.8594 30.25 39.5371 30.0254 38.8437 29.8887C38.4336 29.8008 38.2773 29.7129 38.1699 29.5371C37.8672 29 38.3457 28.4238 38.9219 28.6289C39.1074 28.6973 39.2246 28.8438 39.332 29.1562C39.459 29.5176 39.5273 29.6055 39.752 29.625C39.9082 29.6445 40.0937 29.6055 40.1719 29.5371C40.5234 29.2441 40.123 28.209 39.5176 27.8574C39.2344 27.7012 39.1367 27.584 39.1367 27.3887C39.1367 27.0859 38.9707 26.9102 38.6973 26.9102C38.5801 26.9102 38.4434 26.959 38.375 27.0273Z" fill="white"/>
<path d="M20.5918 26.6855C19.8789 27.0371 19.6445 28.1503 20.1523 28.7656C21.1191 29.9081 22.8281 29.2441 22.7011 27.7597C22.6132 26.7734 21.539 26.2265 20.5918 26.6855ZM21.7343 27.8769C21.7832 28.1699 21.5879 28.3749 21.2558 28.3749C20.748 28.3749 20.6308 27.6816 21.0996 27.496C21.373 27.3984 21.6953 27.5839 21.7343 27.8769Z" fill="white"/>
<path d="M0.826165 36.7539C0.43554 37.1836 0.767572 37.5547 1.55859 37.5547C2.32031 37.5547 2.67187 37.1348 2.24218 36.7441C1.97851 36.5098 1.04101 36.5195 0.826165 36.7539Z" fill="white"/>
<path d="M45.2891 36.7734C45.0547 37.0078 45.0449 37.0566 45.25 37.3398C45.3867 37.5352 45.4844 37.5547 46.2071 37.5547C46.9004 37.5547 47.0469 37.5254 47.2031 37.3496C47.3692 37.1641 47.3692 37.125 47.2324 36.8906C47.0957 36.6465 47.0371 36.6269 46.2949 36.5976C45.5918 36.5781 45.4649 36.5976 45.2891 36.7734Z" fill="white"/>
</svg>
