<svg width="17" height="17" viewBox="0 0 17 17" fill="none" xmlns="http://www.w3.org/2000/svg">
<path d="M8.5 0C8.93591 0 9.29518 0.328134 9.34428 0.750872L9.35 0.85L9.35029 1.96687C12.3087 2.34813 14.6524 4.69199 15.0332 7.65056L16.15 7.65C16.6194 7.65 17 8.03056 17 8.5C17 8.93591 16.6719 9.29518 16.2491 9.34428L16.15 9.35L15.0331 9.35029C14.6519 12.3085 12.3085 14.6519 9.35029 15.0331L9.35 16.15C9.35 16.6194 8.96944 17 8.5 17C8.06409 17 7.70482 16.6719 7.65572 16.2491L7.65 16.15L7.65056 15.0332C4.69199 14.6524 2.34813 12.3087 1.96687 9.35029L0.85 9.35C0.380558 9.35 0 8.96944 0 8.5C0 8.06409 0.328134 7.70482 0.750872 7.65572L0.85 7.65L1.96676 7.65056C2.34768 4.69171 4.69171 2.34768 7.65056 1.96676L7.65 0.85C7.65 0.380558 8.03056 0 8.5 0ZM8.5 3.6125C5.80071 3.6125 3.6125 5.80071 3.6125 8.5C3.6125 11.1993 5.80071 13.3875 8.5 13.3875C11.1993 13.3875 13.3875 11.1993 13.3875 8.5C13.3875 5.80071 11.1993 3.6125 8.5 3.6125ZM8.5 5.1C10.3778 5.1 11.9 6.62223 11.9 8.5C11.9 10.3778 10.3778 11.9 8.5 11.9C6.62223 11.9 5.1 10.3778 5.1 8.5C5.1 6.62223 6.62223 5.1 8.5 5.1Z" fill="white"/>
</svg>
