<svg width="40" height="44" viewBox="0 0 40 44" fill="none" xmlns="http://www.w3.org/2000/svg">
<path d="M8.24221 3.68099C7.71877 3.92216 7.4219 4.56254 7.53127 5.18628C7.60159 5.57715 7.99221 6.03456 8.34377 6.14268C8.5469 6.20921 12.2266 6.22584 20.1719 6.20921C31.6797 6.18426 31.711 6.18426 31.9219 6.00961C32.336 5.68527 32.461 5.41914 32.461 4.8952C32.461 4.37126 32.336 4.10513 31.9219 3.78078C31.711 3.60614 31.6875 3.60614 20.0938 3.5895C10.5547 3.57287 8.43752 3.5895 8.24221 3.68099Z" fill="black"/>
<path d="M5.74221 9.00356C5.21877 9.24474 4.9219 9.88511 5.03127 10.5088C5.10159 10.8997 5.49221 11.3571 5.84377 11.4652C6.0469 11.5318 10.4766 11.5484 20.1719 11.5318L34.211 11.5068L34.4219 11.3322C34.836 11.0078 34.961 10.7417 34.961 10.2178C34.961 9.69383 34.836 9.4277 34.4219 9.10336L34.211 8.92871L20.0938 8.91208C8.47659 8.89544 5.93752 8.91208 5.74221 9.00356Z" fill="black"/>
<path d="M5.32033 14.3428C4.00002 14.717 2.96877 15.8397 2.6172 17.2619C2.43752 17.9854 2.44533 37.0552 2.6172 37.7871C2.96877 39.2175 4.01564 40.3236 5.3672 40.6978C6.03908 40.8891 33.961 40.8891 34.6328 40.6978C35.9844 40.3236 37.0313 39.2175 37.3828 37.7871C37.4844 37.3546 37.5 36.0323 37.5 27.5161C37.5 19 37.4844 17.6777 37.3828 17.2452C37.0313 15.8148 35.9844 14.7087 34.6328 14.3344C33.9688 14.1515 5.96877 14.1598 5.32033 14.3428ZM34.4219 17.0872C34.5391 17.1787 34.711 17.3617 34.7969 17.4864C34.961 17.7109 34.961 17.7442 34.961 27.5161C34.961 37.2881 34.961 37.3213 34.7969 37.5459C34.711 37.6706 34.5391 37.8536 34.4219 37.9451L34.211 38.1197H20H5.78908L5.57814 37.9451C5.46095 37.8536 5.28908 37.6706 5.20314 37.5459C5.03908 37.3213 5.03908 37.2631 5.01564 27.7407C5.00783 22.468 5.01564 18.0436 5.03908 17.8939C5.09377 17.5612 5.42189 17.1371 5.7422 16.9874C5.93752 16.8959 8.47658 16.8793 20.0938 16.8959L34.211 16.9126L34.4219 17.0872Z" fill="black"/>
<path d="M14.4922 20.996C14.1329 21.1956 13.9141 21.4451 13.8204 21.7694C13.7735 21.969 13.7501 23.9899 13.7657 27.6991C13.7891 33.2296 13.7891 33.3294 13.9532 33.5539C14.211 33.9282 14.5001 34.1111 14.8985 34.1444C15.2657 34.186 15.4219 34.1111 20.3907 31.4665C23.2032 29.9695 25.6094 28.6721 25.7344 28.5723C26.0547 28.3311 26.2813 27.749 26.2188 27.3165C26.1094 26.6013 26.1876 26.6512 20.5391 23.6489C15.0079 20.6966 15.0157 20.7049 14.4922 20.996ZM22.1094 27.5161C22.1094 27.5411 20.7891 28.2563 19.1797 29.1212L16.2501 30.6764V27.5161V24.3558L19.1797 25.911C20.7891 26.7759 22.1094 27.4912 22.1094 27.5161Z" fill="black"/>
</svg>
