<svg width="15" height="15" viewBox="0 0 15 15" fill="none" xmlns="http://www.w3.org/2000/svg">
<path d="M4.10156 0.0644493C3.97266 0.114254 3.87598 0.193356 3.60059 0.465816C3.17871 0.884762 3.12305 0.984371 3.12012 1.30371C3.12012 1.47363 3.13477 1.57031 3.17578 1.65527C3.21387 1.73437 4.15137 2.69531 6.09082 4.63769L8.9502 7.5L6.08789 10.3652C3.86133 12.5918 3.21094 13.2568 3.16699 13.3594C3.12598 13.4473 3.10547 13.5557 3.10547 13.6816C3.10547 13.9834 3.19043 14.1299 3.59766 14.5342C3.88477 14.8184 3.96973 14.8828 4.11035 14.9355C4.32422 15.0176 4.49414 15.0176 4.70801 14.9385C4.87207 14.8799 5.02441 14.7305 8.31152 11.4434C12.1113 7.64648 11.8945 7.88671 11.8945 7.5C11.8945 7.11328 12.1113 7.35351 8.31152 3.55664C5.02148 0.266597 4.87207 0.120113 4.70801 0.0615196C4.49707 -0.0146523 4.30957 -0.0146523 4.10156 0.0644493Z" fill="white"/>
</svg>
