<svg width="17" height="17" viewBox="0 0 17 17" fill="none" xmlns="http://www.w3.org/2000/svg">
<path fill-rule="evenodd" clip-rule="evenodd" d="M7.70312 2.65625C4.91581 2.65625 2.65625 4.91581 2.65625 7.70312C2.65625 10.4904 4.91581 12.75 7.70312 12.75C10.4904 12.75 12.75 10.4904 12.75 7.70312C12.75 4.91581 10.4904 2.65625 7.70312 2.65625ZM1.59375 7.70312C1.59375 4.32901 4.32901 1.59375 7.70312 1.59375C11.0772 1.59375 13.8125 4.32901 13.8125 7.70312C13.8125 11.0772 11.0772 13.8125 7.70312 13.8125C4.32901 13.8125 1.59375 11.0772 1.59375 7.70312Z" fill="black" fill-opacity="0.5"/>
<path fill-rule="evenodd" clip-rule="evenodd" d="M11.2721 11.2721C11.4795 11.0646 11.8159 11.0646 12.0234 11.2721L15.2507 14.4994C15.4582 14.7069 15.4582 15.0432 15.2507 15.2507C15.0432 15.4582 14.7069 15.4582 14.4994 15.2507L11.2721 12.0234C11.0646 11.8159 11.0646 11.4795 11.2721 11.2721Z" fill="black" fill-opacity="0.5"/>
</svg>
