<svg width="49" height="49" viewBox="0 0 49 49" fill="none" xmlns="http://www.w3.org/2000/svg">
<path d="M23.3229 0.181839C22.6051 0.421097 22.2606 0.650784 20.624 2.0002C19.0736 3.29219 18.8248 3.47403 18.3941 3.61758C18.2315 3.675 17.15 3.80899 16.0016 3.92383C14.8627 4.03868 13.7143 4.1918 13.4463 4.27794C12.2213 4.67031 11.2547 5.62735 10.8815 6.84278C10.7953 7.10117 10.6422 8.25918 10.5274 9.39805C10.4125 10.5465 10.2785 11.6279 10.2211 11.7906C10.0775 12.2213 9.89571 12.4701 8.59415 14.0396C7.97208 14.7957 7.34044 15.5996 7.18731 15.8389C6.52696 16.882 6.43126 18.3272 6.9672 19.4564C7.12989 19.8201 7.78067 20.7102 8.61329 21.7246C9.36935 22.6434 10.0584 23.5717 10.1541 23.7822C10.269 24.0406 10.3838 24.8445 10.5274 26.2705C10.7475 28.6057 10.8623 29.1129 11.3025 29.802C12.0969 31.0557 12.9965 31.515 15.0445 31.7256C15.7815 31.8022 16.394 31.8691 16.4035 31.8883C16.4227 31.9074 15.2455 34.7402 13.8004 38.1855C12.1543 42.0998 11.1686 44.5785 11.159 44.7795C11.159 45.1719 11.6375 45.6504 12.0395 45.6504C12.183 45.6504 13.3027 45.3633 14.5277 45.0188C15.7623 44.6742 16.8246 44.4158 16.882 44.435C16.949 44.4637 17.4945 45.3824 18.0879 46.483C18.6908 47.574 19.3033 48.598 19.4565 48.7512C19.6861 48.9904 19.7723 49.0191 20.1168 48.9713C20.3274 48.9426 20.5858 48.8373 20.6815 48.7416C20.7772 48.6459 22.1074 45.5738 23.6387 41.918C25.8781 36.5682 26.4715 35.2283 26.682 35.0752C26.816 34.9699 27.6104 34.3287 28.4238 33.6588C29.8594 32.4625 30.558 32.0127 30.8834 32.0797C30.9887 32.0988 31.8117 33.9555 33.5057 37.9941C34.8551 41.2289 35.9557 43.8895 35.9365 43.9086C35.927 43.9182 35.1422 43.7076 34.2043 43.4396C31.3332 42.6166 31.2949 42.6262 29.9551 45.1145C29.4574 46.0332 29.0172 46.7988 28.9885 46.7988C28.9598 46.7988 28.3951 45.526 27.7443 43.966C27.017 42.2146 26.4906 41.0854 26.3758 40.9992C25.9068 40.6738 25.2656 40.9801 25.2656 41.5256C25.2656 41.6787 25.8877 43.3057 26.6533 45.1336C28.1176 48.6363 28.3281 49 28.8641 49C29.4287 49 29.5914 48.799 30.8164 46.5691C31.4672 45.3824 32.051 44.4063 32.1275 44.4063C32.1945 44.4063 33.2377 44.6838 34.4436 45.0283C35.659 45.3729 36.7787 45.6504 36.9414 45.6504C37.3529 45.6504 37.8027 45.2006 37.8027 44.7986C37.8027 44.6264 36.6926 41.851 35.1709 38.2143C33.7258 34.7594 32.5582 31.917 32.5774 31.8979C32.5965 31.8787 33.1899 31.8022 33.8885 31.7256C35.6877 31.5342 36.4342 31.2375 37.1998 30.4049C38.0037 29.534 38.1473 29.0459 38.4152 26.3566C38.5875 24.701 38.6928 24.0406 38.8363 23.7248C38.9416 23.4951 39.6211 22.5955 40.3389 21.7246C42.1381 19.5617 42.4731 18.7865 42.2817 17.284C42.1572 16.3748 41.851 15.8484 40.3389 14.0205C39.5637 13.0731 38.8555 12.1447 38.7789 11.9629C38.7024 11.7811 38.5397 10.6135 38.4152 9.35977C38.1856 7.08204 38.0803 6.62266 37.6592 5.9336C37.1711 5.14883 36.3193 4.49805 35.458 4.25879C35.1996 4.18223 34.032 4.02911 32.874 3.92383C31.4672 3.78028 30.6441 3.66543 30.3858 3.55059C30.1752 3.45489 29.3617 2.85196 28.5865 2.21075C26.2322 0.277542 25.9164 0.0957069 24.6436 0.0382843C24.0598 0.00957489 23.744 0.0382843 23.3229 0.181839ZM25.5336 1.71309C25.7442 1.81836 26.5576 2.44043 27.3424 3.08165C29.0842 4.51719 29.5436 4.83301 30.1752 5.02442C30.4432 5.10098 31.5916 5.2541 32.7209 5.35938C34.9795 5.56992 35.4389 5.69434 35.994 6.19199C36.6352 6.77578 36.7309 7.09161 36.9797 9.63731C37.2955 12.6807 37.2381 12.5563 39.2479 14.9775C39.9369 15.8197 40.5877 16.6811 40.6834 16.8916C40.8844 17.3318 40.9131 18.1357 40.7504 18.6717C40.693 18.8727 40.3197 19.4469 39.9178 19.9445C39.5158 20.4326 38.8363 21.2652 38.4152 21.8012C37.3434 23.1219 37.2572 23.3611 36.9893 26.1078C36.7883 28.0697 36.7309 28.4047 36.5108 28.8641C35.994 29.9072 35.5154 30.1082 32.6826 30.3857C29.9647 30.6537 29.7158 30.7398 28.4047 31.8117C27.8688 32.2328 27.0361 32.9123 26.5481 33.3143C25.5815 34.099 25.1986 34.2617 24.3852 34.2617C23.6483 34.2617 23.275 34.0416 21.4375 32.5295C20.5666 31.8213 19.734 31.1609 19.5904 31.0652C19.0449 30.7207 18.4707 30.6059 16.2313 30.3762C13.6951 30.1178 13.3793 30.0316 12.7955 29.3904C12.2979 28.8354 12.1734 28.376 11.9629 26.1174C11.8576 24.9881 11.7045 23.8397 11.6279 23.5717C11.4365 22.94 11.1207 22.4807 9.68517 20.7389C8.42188 19.198 8.16349 18.7865 8.07735 18.1549C7.95294 17.2936 8.20177 16.8055 9.64688 15.0541C10.3742 14.1641 11.0633 13.3027 11.1877 13.1305C11.5992 12.5467 11.7524 11.8863 11.9629 9.71387C12.0682 8.55586 12.2309 7.40742 12.3074 7.14902C12.5084 6.55567 13.1592 5.90488 13.7525 5.70391C14.0109 5.62735 15.1594 5.46465 16.3174 5.35938C18.4803 5.14883 19.1406 4.9957 19.734 4.58418C19.9063 4.45977 20.758 3.78028 21.6193 3.07207C23.3611 1.63653 23.8109 1.39727 24.6531 1.47383C24.9211 1.49297 25.3231 1.60781 25.5336 1.71309ZM18.5951 32.1945C18.7674 32.2615 19.6766 32.9602 20.624 33.7354C22.4615 35.2475 22.9783 35.5537 23.9067 35.6781C24.232 35.726 24.5191 35.7834 24.5479 35.8121C24.6053 35.86 20.1359 46.5979 20.0115 46.7318C19.9637 46.7797 19.533 46.0906 19.0545 45.2006C18.5664 44.3201 18.0305 43.4588 17.8582 43.2961C17.3223 42.7889 17.0447 42.7984 14.9297 43.3918C13.9057 43.6885 13.0539 43.9086 13.0348 43.8799C13.0156 43.8607 14.1067 41.2002 15.4656 37.9559C18.1262 31.5916 17.9539 31.917 18.5951 32.1945Z" fill="black"/>
<path d="M23.2176 6.59399C22.452 6.70883 22.1744 7.25434 22.6051 7.79985L22.8156 8.06782L23.7248 8.0104C28.5578 7.68501 32.8453 10.7858 34.0799 15.4848C34.3574 16.5375 34.4244 18.3655 34.2235 19.5043C33.477 23.7823 30.1369 27.0362 25.8494 27.6678C24.8158 27.8114 23.0645 27.7252 22.0979 27.4764C16.6619 26.0696 13.4367 20.4997 14.9776 15.1881C15.7719 12.451 17.5998 10.2498 20.1647 8.95786C20.9016 8.58462 21.0643 8.14438 20.624 7.70415C20.3274 7.3979 20.0211 7.40747 19.399 7.71372C16.3461 9.24497 14.1067 12.1831 13.341 15.6571C13.1113 16.7194 13.1113 18.9971 13.341 20.0977C14.1928 24.0694 17.0639 27.352 20.8154 28.6057C23.1123 29.3713 25.792 29.3905 27.9932 28.6536C31.4959 27.486 34.166 24.7776 35.2953 21.2461C36.0897 18.7674 35.9365 15.7911 34.8934 13.3889C33.4674 10.0776 30.4336 7.57973 26.8926 6.7854C25.993 6.58442 23.9545 6.47915 23.2176 6.59399Z" fill="black"/>
<path d="M28.041 12.8338C27.7252 12.9774 26.8543 13.7813 24.8158 15.8102L22.0213 18.6047L21.0356 17.6381C20.2317 16.8629 19.9541 16.6524 19.533 16.5088C18.442 16.1451 17.2361 16.6811 16.8055 17.7242C16.6141 18.1836 16.6141 19.0449 16.7959 19.5043C16.9777 19.9254 20.3465 23.3516 20.9111 23.6865C21.4662 24.0119 21.9926 24.0693 22.6529 23.8779C23.1984 23.7248 23.2942 23.6387 26.9692 19.9733C29.5053 17.4371 30.7877 16.0877 30.9217 15.8197C31.1801 15.2838 31.1801 14.4129 30.9217 13.8961C30.3666 12.8147 29.1129 12.3457 28.041 12.8338ZM29.4287 14.3076C29.5914 14.4608 29.668 14.6426 29.668 14.8531C29.668 15.1403 29.3426 15.4944 25.993 18.844C22.7104 22.1266 22.2797 22.519 22.0117 22.519C21.7438 22.519 21.4854 22.2988 19.8967 20.7102C18.0496 18.8631 17.9539 18.7387 18.1453 18.2315C18.2315 18.0113 18.7291 17.7817 18.9779 17.8582C19.0928 17.8869 19.7531 18.4707 20.4422 19.1502C21.5428 20.2317 21.7342 20.3848 22.0117 20.3848C22.3084 20.3848 22.6051 20.1072 25.5049 17.2266C28.9406 13.81 28.9406 13.81 29.4287 14.3076Z" fill="black"/>
</svg>
