<svg width="24" height="24" viewBox="0 0 24 24" fill="none" xmlns="http://www.w3.org/2000/svg">
<g clip-path="url(#clip0_774_491)">
<path d="M1.69209 0.0515575C0.88584 0.210932 0.201465 0.904682 0.0467773 1.72968C-0.0188477 2.07656 -0.0188477 17.6578 0.0467773 18.0047C0.206152 18.8484 0.88584 19.5281 1.72959 19.6875C1.88428 19.7156 3.14521 19.7344 5.01084 19.7344H8.04365L8.15146 20.6578C8.33428 22.2375 8.37178 22.4437 8.55459 22.8094C8.73271 23.175 9.13584 23.5969 9.46865 23.7656C9.93271 24.0047 9.82021 24 16.1296 24C19.9405 24 22.1062 23.9812 22.2702 23.9531C23.114 23.7937 23.7937 23.1141 23.953 22.2703C24.0187 21.9234 24.0187 6.34218 23.953 5.99531C23.8124 5.26406 23.3296 4.69218 22.5983 4.39687L22.3358 4.28906L17.039 4.26562L11.7421 4.24218L11.5921 3.02343C11.5077 2.35312 11.4187 1.71093 11.3905 1.59843C11.264 1.09687 10.8187 0.510933 10.3687 0.267181C9.88115 -5.72205e-06 9.88115 -5.72205e-06 5.71865 0.00468254C3.61865 0.0093689 1.80459 0.02812 1.69209 0.0515575ZM9.74053 1.53749C9.8249 1.59843 9.92334 1.71093 9.96553 1.79062C10.0171 1.88906 10.3452 4.40156 11.0437 10.0031C11.5921 14.4375 12.0562 18.1266 12.0655 18.1969L12.0937 18.3281H7.02646C2.04834 18.3281 1.96396 18.3281 1.78115 18.2344C1.65928 18.1734 1.56084 18.075 1.4999 17.9531C1.40615 17.7703 1.40615 17.6953 1.40615 9.86718C1.40615 2.04375 1.40615 1.96406 1.4999 1.78124C1.55615 1.66875 1.66396 1.56093 1.77178 1.50468C1.94053 1.41093 2.03428 1.41093 5.76553 1.42031L9.58584 1.42968L9.74053 1.53749ZM22.2187 5.76562C22.3405 5.82656 22.439 5.92499 22.4999 6.04687C22.5937 6.22968 22.5937 6.30468 22.5937 14.1328C22.5937 21.9609 22.5937 22.0359 22.4999 22.2187C22.439 22.3406 22.3405 22.4391 22.2187 22.5C22.0358 22.5937 21.9702 22.5937 16.3921 22.5844L10.7483 22.5703L12.1265 20.9766C13.0546 19.9031 13.514 19.3312 13.5468 19.2234C13.5796 19.0969 13.4108 17.6062 12.7733 12.4734C12.3233 8.84999 11.9483 5.83593 11.939 5.77499L11.9202 5.67187H16.978C21.9515 5.67187 22.0358 5.67187 22.2187 5.76562ZM10.5562 20.6391C10.1249 21.1406 9.75459 21.5531 9.72646 21.5578C9.68896 21.5625 9.48271 20.1891 9.47334 19.8375L9.46865 19.7344H10.4062H11.3437L10.5562 20.6391Z" fill="black"/>
<path d="M5.39063 5.04375C5.04844 5.18438 5.0625 5.12813 4.28438 9.03281C3.88594 11.0109 3.5625 12.6797 3.5625 12.7359C3.5625 13.0594 3.92344 13.4062 4.26562 13.4062C4.49531 13.4062 4.76719 13.2422 4.86563 13.0406C4.91719 12.9469 5.05781 12.3563 5.17969 11.7281L5.40469 10.5938H6.375H7.34531L7.57031 11.7281C7.69219 12.3563 7.83281 12.9469 7.88438 13.0406C7.98281 13.2422 8.25469 13.4062 8.48438 13.4062C8.82656 13.4062 9.1875 13.0594 9.1875 12.7359C9.1875 12.6797 8.86406 11.0109 8.46563 9.03281C7.68281 5.10938 7.70156 5.18438 7.34531 5.03906C7.10156 4.94063 5.62969 4.94063 5.39063 5.04375ZM6.78281 7.78125L7.06406 9.1875H6.375H5.68594L5.96719 7.78125L6.24844 6.375H6.375H6.50156L6.78281 7.78125Z" fill="black"/>
<path d="M14.5873 10.8047C14.3482 10.9781 14.2732 11.3531 14.4326 11.5969C14.592 11.8406 14.6717 11.8547 15.5998 11.8594C16.5139 11.8594 16.6451 11.8875 16.8467 12.1125C17.1889 12.4969 17.1092 13.2047 16.6967 13.4625C16.5326 13.5656 16.4623 13.5703 15.5014 13.5938L14.4748 13.6172L14.3389 13.7719C14.2264 13.8938 14.2029 13.9641 14.2029 14.1563C14.2029 14.3485 14.2264 14.4188 14.3389 14.5406L14.4748 14.6953L15.5014 14.7188C16.4623 14.7422 16.5326 14.7469 16.6967 14.85C17.1936 15.1594 17.1748 16.0594 16.6639 16.3453C16.4342 16.4719 16.0686 16.486 15.5342 16.3828C15.0654 16.2938 14.667 16.1016 14.3295 15.8016C14.1186 15.6141 14.0201 15.5625 13.8982 15.5625C13.5701 15.5625 13.2982 15.961 13.4061 16.2891C13.4811 16.5141 14.0436 17.025 14.4045 17.1938C15.042 17.4938 15.3279 17.5547 16.1014 17.5547C16.7342 17.5547 16.767 17.55 17.0295 17.4188C17.3764 17.2406 17.7326 16.861 17.9154 16.4719C18.1311 16.0125 18.1498 15.4078 17.9717 14.8219L17.9436 14.7188L18.9186 14.7281L19.8982 14.7422L19.9217 16.0172L19.9451 17.2922L20.0811 17.4328C20.2779 17.6391 20.5498 17.6391 20.7467 17.4328L20.8826 17.2922L20.9061 14.5875L20.9295 11.8828L21.3701 11.8594C21.7967 11.836 21.8108 11.8313 21.942 11.6766C22.1529 11.4188 22.1436 11.1141 21.9045 10.8656L21.7779 10.7344H20.4092H19.0404L18.8951 10.8985C18.7732 11.0391 18.7498 11.1047 18.7498 11.2969C18.7498 11.4891 18.7732 11.55 18.9092 11.6906L19.0639 11.8594H19.4951H19.9217L19.9123 12.7125L19.8982 13.5703L18.9186 13.5844L17.9436 13.5938L17.9717 13.4906C18.0795 13.1438 18.0982 12.9656 18.0795 12.5813C18.0654 12.225 18.0326 12.0985 17.9154 11.8406C17.7326 11.4516 17.3764 11.0719 17.0295 10.8938L16.7576 10.7578L15.7264 10.7438C14.8404 10.7344 14.6811 10.7438 14.5873 10.8047Z" fill="black"/>
<path d="M14.1233 11.2969C14.1233 11.4141 14.1327 11.4609 14.142 11.4C14.1514 11.3438 14.1514 11.25 14.142 11.1891C14.1327 11.1328 14.1233 11.1797 14.1233 11.2969Z" fill="black"/>
</g>
<defs>
<clipPath id="clip0_774_491">
<rect width="24" height="24" fill="white"/>
</clipPath>
</defs>
</svg>
